<svg xmlns="http://www.w3.org/2000/svg" width="894.5" height="894.5" xmlns:v="https://vecta.io/nano"><path fill="#9acd32" d="M-13.984-10.25h920v922h-920z"/><path d="M757.913 180.94c-97.05 42.058-182.956 106.17-252.135 186.102h53.504c62.008-64.36 136.4-115.87 218.597-151.494 23.394-10.136 3.218-44.65-19.966-34.608zM489.046 387.08H84.216c0 195.9 156.76 354.7 350.13 354.7s350.13-158.802 350.13-354.7h-295.43zm-166.008-98.076c.37-.873.588-1.694.87-2.508.303-.8.85-1.564 1.237-2.3.506-.726.613-1.45 1.228-2.095l1.438-1.87c.36-.6.9-1.18 1.523-1.72a18.07 18.07.0 001.504-1.6c1.17-1.058 2.53-2.084 3.47-3.173 1.567-1.07 2.9-2.213 4.137-3.374 1.456-.8 2.703-1.648 3.783-2.67.1-.16.902-.7 1.55-1.178l1.974-1.423 3.917-2.917 2.9-2.188 5.055-3.955c6.603-5.68 12.763-12.582 17.666-20.576 4.92-7.964 8.408-17.066 9.937-26.093 1.575-9.03 1.222-17.842-.387-25.504-1.574-7.7-4.47-14.255-7.605-19.7-6.432-10.873-14.2-17.306-20.048-21.045-2.882-1.904-5.53-3.006-7.186-3.8-1.725-.75-2.74-1.008-2.74-1.008l-.087 2.897c.02 1.797-.246 4.54-.373 7.7-.368 6.348-1.044 14.957-2.85 23.346-.847 4.18-2.144 8.296-3.66 11.942-1.535 3.672-3.358 6.854-5.36 9.654-2.015 2.8-4.192 5.302-6.688 7.927-2.502 2.6-5.405 5.315-8.736 8.168l-2.63 2.144-.815.682-1.484 1.175-.114.104-.455.414-1.82 1.64-3.593 3.314-1.764 1.678c-.594.57-1.095 1-2.026 2.084a160.83 160.83.0 00-9.313 11.35 156.86 156.86.0 00-6.58 12.02c-.87 2.2-1.626 4.465-2.334 6.667-.682 2.245-1.468 4.297-1.833 6.63-.378 2.326-.704 4.618-.925 6.87l-.32 3.327c-.06 1.106.055 2.25.096 3.354.2 4.437.573 8.622 1.807 12.478.57 1.918 1.03 3.812 1.73 5.54.755 1.712 1.443 3.374 2.276 4.93 1.5 3.187 3.5 5.743 5.26 8.18 1.906 2.344 3.867 4.306 5.726 6.072 2.03 1.626 3.802 3.126 5.642 4.297 1.883 1.13 3.5 2.155 5.14 2.9 3.16 1.57 5.946 2.297 7.708 2.822 1.836.473 2.876.552 2.876.552l-.352-2.877c-.274-1.776-.368-4.524-.6-7.602l-.133-5.027.2-5.515c.395-3.798.9-7.664 2.16-11.14zm113.407.0c.372-.873.587-1.694.868-2.508.3-.8.85-1.564 1.24-2.3.505-.726.6-1.45 1.226-2.095.555-.65.998-1.274 1.438-1.87.362-.6.913-1.18 1.523-1.72a17.27 17.27.0 001.506-1.61c1.17-1.058 2.532-2.084 3.47-3.173 1.566-1.07 2.896-2.213 4.137-3.374 1.457-.8 2.702-1.648 3.783-2.67.1-.16.902-.7 1.55-1.178l1.974-1.423 3.914-2.917 2.9-2.188 5.057-3.955c6.605-5.68 12.765-12.582 17.665-20.576 4.922-7.964 8.407-17.066 9.94-26.093 1.574-9.03 1.22-17.842-.4-25.504-1.575-7.7-4.47-14.255-7.604-19.7-6.434-10.873-14.2-17.306-20.047-21.045-2.88-1.904-5.525-3.006-7.184-3.8-1.725-.75-2.742-1.008-2.742-1.008l-.088 2.897c.02 1.797-.245 4.54-.37 7.7-.367 6.348-1.043 14.957-2.85 23.346-.846 4.18-2.145 8.296-3.658 11.942-1.534 3.672-3.358 6.854-5.36 9.654-2.014 2.8-4.2 5.302-6.686 7.927-2.506 2.6-5.406 5.315-8.738 8.168l-2.63 2.144-.652.546-.163.136-1.483 1.175-.568.518-1.82 1.64-3.593 3.314-1.764 1.678c-.594.57-1.096 1-2.026 2.084-3.322 3.7-6.448 7.515-9.313 11.35a157.36 157.36.0 00-6.579 12.019c-.87 2.2-1.626 4.465-2.334 6.667-.68 2.245-1.467 4.297-1.832 6.63-.378 2.326-.705 4.618-.925 6.87l-.322 3.327c-.06 1.106.055 2.25.095 3.354.203 4.437.574 8.622 1.8 12.478.57 1.918 1.028 3.812 1.73 5.54.756 1.712 1.442 3.374 2.274 4.93 1.495 3.187 3.502 5.743 5.262 8.18 1.906 2.344 3.865 4.306 5.724 6.072 2.03 1.626 3.802 3.126 5.643 4.297 1.883 1.13 3.5 2.155 5.14 2.9 3.16 1.57 5.946 2.297 7.7 2.822 1.836.473 2.877.552 2.877.552l-.354-2.877c-.27-1.776-.368-4.524-.6-7.602l-.135-5.027.2-5.515c.4-3.798.88-7.664 2.155-11.14zm-229.67-.776c.374-.874.588-1.696.87-2.5.3-.8.85-1.564 1.24-2.3.504-.726.6-1.45 1.226-2.096.554-.65 1-1.274 1.438-1.87.363-.6.913-1.178 1.522-1.72.578-.54 1.066-1.078 1.506-1.612 1.17-1.057 2.53-2.083 3.468-3.172 1.567-1.07 2.898-2.213 4.137-3.374 1.458-.8 2.703-1.647 3.784-2.67.1-.16.902-.7 1.55-1.177l1.974-1.425 3.915-2.917 2.902-2.188 5.056-3.955c6.605-5.68 12.765-12.582 17.664-20.576 4.923-7.963 8.4-17.066 9.94-26.092 1.574-9.03 1.22-17.842-.4-25.504-1.575-7.7-4.47-14.255-7.604-19.7-6.433-10.874-14.2-17.306-20.046-21.045-2.88-1.903-5.526-3.006-7.185-3.8-1.725-.75-2.742-1.008-2.742-1.008l-.087 2.897c.02 1.797-.246 4.54-.372 7.7-.367 6.348-1.043 14.956-2.85 23.346-.848 4.18-2.145 8.295-3.658 11.942-1.533 3.672-3.36 6.853-5.36 9.654-2.015 2.8-4.2 5.3-6.687 7.93-2.506 2.608-5.405 5.314-8.736 8.167l-2.63 2.143-.816.682-1.483 1.175-.115.104-.454.414-1.82 1.64-3.593 3.313-1.764 1.68c-.593.57-1.094 1-2.025 2.083a161.45 161.45.0 00-9.313 11.351 156.67 156.67.0 00-6.58 12.018c-.87 2.212-1.625 4.465-2.333 6.67-.68 2.244-1.467 4.296-1.833 6.628-.378 2.326-.705 4.618-.924 6.87l-.322 3.326c-.06 1.106.056 2.252.095 3.354.202 4.437.573 8.622 1.8 12.477.57 1.918 1.028 3.812 1.728 5.54.756 1.7 1.443 3.373 2.276 4.932 1.495 3.186 3.5 5.742 5.26 8.18 1.907 2.345 3.866 4.306 5.726 6.073 2.028 1.625 3.8 3.126 5.642 4.297 1.883 1.13 3.508 2.154 5.14 2.9 3.16 1.57 5.946 2.296 7.7 2.822 1.836.47 2.876.55 2.876.55l-.354-2.876c-.27-1.775-.367-4.523-.6-7.603l-.135-5.025.2-5.514c.4-3.8.88-7.667 2.155-11.142z" fill="#fff"/></svg>